<svg width="84" height="30" viewBox="0 0 84 30" fill="none" xmlns="http://www.w3.org/2000/svg">
<path d="M10.5625 18.0781C10.6146 18.0781 10.6406 18.099 10.6406 18.1406V19.9219C10.6406 19.974 10.6146 20 10.5625 20H5.71094C4.23177 20 3.08333 19.6562 2.26562 18.9688C1.44792 18.276 1.03906 17.3125 1.03906 16.0781C1.03906 15.2917 1.22656 14.5938 1.60156 13.9844C1.97656 13.375 2.51302 12.9062 3.21094 12.5781C3.91406 12.2448 4.7474 12.0781 5.71094 12.0781H6.15625V11.2969H8.5625V18.0781H10.5625ZM6.17969 18.0781V14H5.75781C5.02865 14 4.46615 14.1797 4.07031 14.5391C3.67969 14.8984 3.48438 15.4167 3.48438 16.0938C3.48438 16.7292 3.67708 17.2188 4.0625 17.5625C4.44792 17.9062 5.0026 18.0781 5.72656 18.0781H6.17969ZM4.6875 10.2891C4.35938 10.2891 4.09896 10.1875 3.90625 9.98438C3.71354 9.77604 3.61719 9.49479 3.61719 9.14062C3.61719 8.78125 3.71094 8.5 3.89844 8.29688C4.09115 8.08854 4.35417 7.98438 4.6875 7.98438C5.01562 7.98438 5.27344 8.08594 5.46094 8.28906C5.64844 8.49219 5.74219 8.77604 5.74219 9.14062C5.74219 9.50521 5.64583 9.78906 5.45312 9.99219C5.26042 10.1901 5.00521 10.2891 4.6875 10.2891ZM7.40625 10.2891C7.07812 10.2891 6.81771 10.1875 6.625 9.98438C6.43229 9.77604 6.33594 9.49479 6.33594 9.14062C6.33594 8.78125 6.42969 8.5 6.61719 8.29688C6.8099 8.08854 7.07292 7.98438 7.40625 7.98438C7.73958 7.98438 8 8.08854 8.1875 8.29688C8.375 8.5 8.46875 8.78125 8.46875 9.14062C8.46875 9.49479 8.36979 9.77604 8.17188 9.98438C7.97917 10.1875 7.72396 10.2891 7.40625 10.2891ZM21.4453 18.0781C21.4974 18.0781 21.5234 18.099 21.5234 18.1406V19.9219C21.5234 19.974 21.4974 20 21.4453 20H10.4062C10.3542 20 10.3281 19.974 10.3281 19.9219V18.1406C10.3281 18.099 10.3542 18.0781 10.4062 18.0781H12.6953C12.1797 17.4688 11.9219 16.7656 11.9219 15.9688C11.9219 14.776 12.3333 13.8307 13.1562 13.1328C13.9792 12.4297 15.125 12.0781 16.5938 12.0781H19.4453V18.0781H21.4453ZM17.0625 18.0781V14H16.6406C15.9219 14 15.3646 14.1797 14.9688 14.5391C14.5729 14.8932 14.375 15.4115 14.375 16.0938C14.375 16.7292 14.5651 17.2188 14.9453 17.5625C15.3307 17.9062 15.8854 18.0781 16.6094 18.0781H17.0625ZM16.4219 10.7031C16.0885 10.7031 15.8255 10.6016 15.6328 10.3984C15.4401 10.1901 15.3438 9.90885 15.3438 9.55469C15.3438 9.19531 15.4375 8.91406 15.625 8.71094C15.8177 8.5026 16.0833 8.39844 16.4219 8.39844C16.7448 8.39844 17 8.5 17.1875 8.70312C17.3802 8.90625 17.4766 9.1901 17.4766 9.55469C17.4766 9.90885 17.3776 10.1901 17.1797 10.3984C16.987 10.6016 16.7344 10.7031 16.4219 10.7031ZM21.2969 20C21.2448 20 21.2188 19.974 21.2188 19.9219V18.1406C21.2188 18.099 21.2448 18.0781 21.2969 18.0781H23.7734V12.0781H26.1562V18.0781H28.5625C28.6146 18.0781 28.6406 18.099 28.6406 18.1406V19.9219C28.6406 19.974 28.6146 20 28.5625 20H21.2969ZM23.4375 24C23.1094 24 22.849 23.8958 22.6562 23.6875C22.4635 23.4844 22.3672 23.2057 22.3672 22.8516C22.3672 22.4922 22.4609 22.2083 22.6484 22C22.8411 21.7969 23.1042 21.6953 23.4375 21.6953C23.7656 21.6953 24.0234 21.7969 24.2109 22C24.3984 22.2031 24.4922 22.487 24.4922 22.8516C24.4922 23.2161 24.3958 23.4974 24.2031 23.6953C24.0104 23.8984 23.7552 24 23.4375 24ZM26.1562 24C25.8281 24 25.5677 23.8958 25.375 23.6875C25.1823 23.4844 25.0859 23.2057 25.0859 22.8516C25.0859 22.4922 25.1797 22.2083 25.3672 22C25.5599 21.7969 25.8229 21.6953 26.1562 21.6953C26.4896 21.6953 26.75 21.7969 26.9375 22C27.125 22.2083 27.2188 22.4922 27.2188 22.8516C27.2188 23.2057 27.1198 23.4844 26.9219 23.6875C26.7292 23.8958 26.474 24 26.1562 24ZM39.0781 18.0781V16.1094C39.0781 15.3333 38.8984 14.763 38.5391 14.3984C38.1849 14.0286 37.6328 13.8438 36.8828 13.8438C35.4453 13.8438 34.2031 14.8385 33.1562 16.8281V18.0781H39.0781ZM28.4062 20C28.3542 20 28.3281 19.974 28.3281 19.9219V18.1406C28.3281 18.099 28.3542 18.0781 28.4062 18.0781H30.7734V7.84375H33.1562V14.8828C34.1302 12.9089 35.5755 11.9219 37.4922 11.9219C38.8047 11.9219 39.7943 12.2682 40.4609 12.9609C41.1276 13.6484 41.4609 14.7135 41.4609 16.1562V20H28.4062ZM36.7734 10.7031C36.4401 10.7031 36.1771 10.6016 35.9844 10.3984C35.7917 10.1901 35.6953 9.90885 35.6953 9.55469C35.6953 9.19531 35.7891 8.91406 35.9766 8.71094C36.1693 8.5026 36.4349 8.39844 36.7734 8.39844C37.0964 8.39844 37.3516 8.5 37.5391 8.70312C37.7318 8.90625 37.8281 9.1901 37.8281 9.55469C37.8281 9.90885 37.7292 10.1901 37.5312 10.3984C37.3385 10.6016 37.0859 10.7031 36.7734 10.7031ZM47.1172 23.8438C46.3932 23.8438 45.7656 23.7865 45.2344 23.6719C44.7083 23.5625 44.2005 23.362 43.7109 23.0703L44.6406 21.3281C45.0729 21.5521 45.4818 21.7083 45.8672 21.7969C46.2526 21.8906 46.6536 21.9375 47.0703 21.9375C47.6745 21.9375 48.1406 21.7708 48.4688 21.4375C48.7969 21.1094 48.9609 20.6562 48.9609 20.0781V20H47.375C46.2344 20 45.3568 19.6771 44.7422 19.0312C44.1276 18.3854 43.8203 17.4661 43.8203 16.2734C43.8203 15.4297 44.0312 14.6901 44.4531 14.0547C44.875 13.4141 45.4714 12.9245 46.2422 12.5859C47.013 12.2474 47.9036 12.0781 48.9141 12.0781H51.3438V20.0469C51.3438 21.2604 50.974 22.1953 50.2344 22.8516C49.5 23.513 48.4609 23.8438 47.1172 23.8438ZM48.9609 18.0781V14H48.4453C47.763 14 47.2292 14.1927 46.8438 14.5781C46.4635 14.9635 46.2734 15.5078 46.2734 16.2109C46.2734 16.8516 46.4036 17.3229 46.6641 17.625C46.9245 17.9271 47.3229 18.0781 47.8594 18.0781H48.9609Z" fill="#8357CA"/>
<rect width="23" height="18.4" rx="2" transform="matrix(-1 0 0 1 84 7.46667)" fill="#8357CA"/>
<rect width="11" height="7" rx="3" transform="matrix(-1 0 0 1 78 4.1333)" stroke="#8357CA" stroke-width="2"/>
<rect width="23" height="1.53333" transform="matrix(-1 0 0 1 84 16.6667)" fill="#EFEBF5"/>
</svg>
