<svg width="16" height="16" viewBox="0 0 16 16" fill="none" xmlns="http://www.w3.org/2000/svg">
<path d="M15.0788 15.9573C15.5635 15.9573 15.9575 15.564 15.9575 15.0787V0.915344C15.9575 0.429344 15.5641 0.0360107 15.0788 0.0360107H0.915466C0.429466 0.0360107 0.0361328 0.429344 0.0361328 0.915344V15.0787C0.0361328 15.564 0.429466 15.9573 0.915466 15.9573H15.0788Z" fill="#3C5A99"/>
<path d="M11.0213 15.9573V9.79201H13.0907L13.4007 7.38867H11.0213V5.85534C11.0213 5.15934 11.2147 4.68534 12.212 4.68534L13.4847 4.68467V2.53534C13.2647 2.50601 12.5093 2.44067 11.6307 2.44067C9.796 2.44067 8.54 3.56067 8.54 5.61667V7.38867H6.46533V9.79201H8.54V15.9573H11.0213Z" fill="white"/>
</svg>
