<svg width="12" height="16" viewBox="0 0 12 16" fill="none" xmlns="http://www.w3.org/2000/svg">
<path d="M6 13.4333L9.3 10.1333C9.9526 9.48066 10.397 8.64914 10.577 7.74391C10.7571 6.83867 10.6646 5.90039 10.3114 5.04769C9.95817 4.195 9.36003 3.46619 8.59261 2.95343C7.82519 2.44068 6.92296 2.16699 6 2.16699C5.07704 2.16699 4.17481 2.44068 3.40739 2.95343C2.63997 3.46619 2.04183 4.195 1.68861 5.04769C1.33539 5.90039 1.24294 6.83867 1.42297 7.74391C1.603 8.64914 2.04741 9.48066 2.7 10.1333L6 13.4333ZM6 15.3187L1.75734 11.076C0.918228 10.2369 0.346791 9.16777 0.115286 8.00389C-0.11622 6.84001 0.00260456 5.63361 0.456732 4.53726C0.91086 3.4409 1.6799 2.50384 2.66659 1.84455C3.65328 1.18527 4.81332 0.833374 6 0.833374C7.18669 0.833374 8.34672 1.18527 9.33342 1.84455C10.3201 2.50384 11.0891 3.4409 11.5433 4.53726C11.9974 5.63361 12.1162 6.84001 11.8847 8.00389C11.6532 9.16777 11.0818 10.2369 10.2427 11.076L6 15.3187ZM6 8.16666C6.35362 8.16666 6.69276 8.02618 6.94281 7.77613C7.19286 7.52608 7.33334 7.18694 7.33334 6.83332C7.33334 6.4797 7.19286 6.14056 6.94281 5.89051C6.69276 5.64047 6.35362 5.49999 6 5.49999C5.64638 5.49999 5.30724 5.64047 5.05719 5.89051C4.80715 6.14056 4.66667 6.4797 4.66667 6.83332C4.66667 7.18694 4.80715 7.52608 5.05719 7.77613C5.30724 8.02618 5.64638 8.16666 6 8.16666ZM6 9.49999C5.29276 9.49999 4.61448 9.21904 4.11438 8.71894C3.61429 8.21884 3.33334 7.54057 3.33334 6.83332C3.33334 6.12608 3.61429 5.4478 4.11438 4.9477C4.61448 4.44761 5.29276 4.16666 6 4.16666C6.70725 4.16666 7.38552 4.44761 7.88562 4.9477C8.38572 5.4478 8.66667 6.12608 8.66667 6.83332C8.66667 7.54057 8.38572 8.21884 7.88562 8.71894C7.38552 9.21904 6.70725 9.49999 6 9.49999Z" fill="#C2BFC6"/>
</svg>
