<svg width="111" height="39" viewBox="0 0 111 39" fill="none" xmlns="http://www.w3.org/2000/svg">
<path d="M17.8932 23.5519V18.3571H17.3658C16.437 18.3571 15.7205 18.586 15.2162 19.0438C14.7187 19.5016 14.4699 20.1617 14.4699 21.0242C14.4699 21.8336 14.7153 22.4572 15.2063 22.8951C15.6972 23.333 16.4038 23.5519 17.326 23.5519H17.8932ZM23.486 23.5519C23.5524 23.5519 23.5856 23.5784 23.5856 23.6315V25.9005C23.5856 25.9668 23.5524 26 23.486 26H6.14034C4.88644 26 3.89459 25.6351 3.1648 24.9053C2.44165 24.1755 2.08008 23.1737 2.08008 21.8999C2.08008 21.3891 2.13979 20.8451 2.25921 20.2679C2.37862 19.684 2.53785 19.1898 2.73688 18.7851H5.42383C5.21816 19.6674 5.11532 20.5565 5.11532 21.4521C5.11532 22.0824 5.29114 22.5899 5.64276 22.9747C5.99439 23.3595 6.4588 23.5519 7.03599 23.5519H12.3303C11.6801 22.7624 11.355 21.8668 11.355 20.865C11.355 19.3457 11.8791 18.1415 12.9274 17.2525C13.9756 16.3569 15.4352 15.909 17.3061 15.909H20.9384V23.5519H23.486ZM17.1668 14.1576C16.7422 14.1576 16.4071 14.0282 16.1616 13.7694C15.9162 13.5041 15.7934 13.1458 15.7934 12.6947C15.7934 12.2369 15.9129 11.8786 16.1517 11.6199C16.3972 11.3545 16.7355 11.2218 17.1668 11.2218C17.5781 11.2218 17.9032 11.3512 18.142 11.6099C18.3875 11.8687 18.5102 12.2303 18.5102 12.6947C18.5102 13.1458 18.3842 13.5041 18.1321 13.7694C17.8866 14.0282 17.5648 14.1576 17.1668 14.1576ZM23.287 26C23.2207 26 23.1875 25.9668 23.1875 25.9005V23.6315C23.1875 23.5784 23.2207 23.5519 23.287 23.5519H26.8497V15.909H29.8849V26H23.287ZM24.929 31.0952C24.5111 31.0952 24.1793 30.9625 23.9339 30.6972C23.6884 30.4384 23.5657 30.0835 23.5657 29.6323C23.5657 29.1746 23.6851 28.813 23.9239 28.5476C24.1694 28.2889 24.5044 28.1595 24.929 28.1595C25.347 28.1595 25.6754 28.2889 25.9142 28.5476C26.1531 28.8064 26.2725 29.1679 26.2725 29.6323C26.2725 30.0968 26.1498 30.455 25.9043 30.7071C25.6588 30.9659 25.3337 31.0952 24.929 31.0952ZM28.3922 31.0952C27.9742 31.0952 27.6425 30.9625 27.397 30.6972C27.1516 30.4384 27.0288 30.0835 27.0288 29.6323C27.0288 29.1746 27.1482 28.813 27.3871 28.5476C27.6326 28.2889 27.9676 28.1595 28.3922 28.1595C28.8168 28.1595 29.1485 28.2889 29.3874 28.5476C29.6262 28.813 29.7456 29.1746 29.7456 29.6323C29.7456 30.0835 29.6196 30.4384 29.3675 30.6972C29.122 30.9625 28.7969 31.0952 28.3922 31.0952ZM39.2494 23.5519C39.3158 23.5519 39.349 23.5784 39.349 23.6315V25.9005C39.349 25.9668 39.3158 26 39.2494 26H33.6666V10.5153H36.7018V23.5519H39.2494ZM52.6443 23.5519V21.0441C52.6443 20.0556 52.4155 19.3291 51.9577 18.8647C51.5065 18.3936 50.8033 18.1581 49.8479 18.1581C48.0168 18.1581 46.4345 19.4253 45.101 21.9596V23.5519H52.6443ZM39.0504 26C38.9841 26 38.9509 25.9668 38.9509 25.9005V23.6315C38.9509 23.5784 38.9841 23.5519 39.0504 23.5519H42.0658V10.5153H45.101V19.4817C46.3416 16.9672 48.1827 15.71 50.6242 15.71C52.296 15.71 53.5566 16.1512 54.4058 17.0336C55.255 17.9093 55.6796 19.2661 55.6796 21.1038V26H39.0504ZM49.7086 14.1576C49.284 14.1576 48.949 14.0282 48.7035 13.7694C48.458 13.5041 48.3353 13.1458 48.3353 12.6947C48.3353 12.2369 48.4547 11.8786 48.6935 11.6199C48.939 11.3545 49.2774 11.2218 49.7086 11.2218C50.1199 11.2218 50.445 11.3512 50.6839 11.6099C50.9293 11.8687 51.0521 12.2303 51.0521 12.6947C51.0521 13.1458 50.926 13.5041 50.6739 13.7694C50.4284 14.0282 50.1067 14.1576 49.7086 14.1576ZM62.8846 30.8962C61.9624 30.8962 61.1629 30.8232 60.4862 30.6773C59.8162 30.5379 59.1693 30.2825 58.5457 29.911L59.7299 27.6918C60.2806 27.9771 60.8014 28.1761 61.2923 28.2889C61.7833 28.4083 62.2941 28.468 62.8249 28.468C63.5945 28.468 64.1882 28.2557 64.6062 27.8311C65.0242 27.4131 65.2332 26.8359 65.2332 26.0995V26H63.213C61.76 26 60.6421 25.5887 59.8593 24.766C59.0764 23.9433 58.685 22.7724 58.685 21.2531C58.685 20.1783 58.9537 19.2362 59.4911 18.4268C60.0285 17.6108 60.7881 16.9871 61.77 16.5559C62.7519 16.1247 63.8864 15.909 65.1735 15.909H68.2684V26.0597C68.2684 27.6055 67.7974 28.7964 66.8553 29.6323C65.9198 30.4749 64.5963 30.8962 62.8846 30.8962ZM65.2332 23.5519V18.3571H64.5764C63.7072 18.3571 63.0272 18.6026 62.5363 19.0936C62.052 19.5845 61.8098 20.2778 61.8098 21.1735C61.8098 21.9895 61.9757 22.5899 62.3074 22.9747C62.6391 23.3595 63.1466 23.5519 63.83 23.5519H65.2332Z" fill="url(#paint0_linear)"/>
<path fill-rule="evenodd" clip-rule="evenodd" d="M86.8443 9.08657C86.8443 6.14762 89.2268 3.76514 92.1657 3.76514H98.5348C101.474 3.76514 103.856 6.14762 103.856 9.08657V10.3604C103.856 10.4683 103.853 10.5754 103.847 10.6818H107.46C108.867 10.6818 110.008 11.8224 110.008 13.2294V21.1072H80.7101V13.2294C80.7101 11.8224 81.8508 10.6818 83.2578 10.6818H86.8538C86.8475 10.5754 86.8443 10.4683 86.8443 10.3604V9.08657ZM80.7101 23.1072V31.5722C80.7101 32.9793 81.8508 34.1199 83.2578 34.1199H107.46C108.867 34.1199 110.008 32.9792 110.008 31.5722V23.1072H80.7101ZM100.856 10.3604C100.856 10.4694 100.849 10.5767 100.834 10.6818H89.8664C89.8518 10.5767 89.8443 10.4694 89.8443 10.3604V9.08657C89.8443 7.80448 90.8836 6.76514 92.1657 6.76514H98.5348C99.8169 6.76514 100.856 7.80448 100.856 9.08657V10.3604Z" fill="url(#paint1_linear)"/>
<defs>
<linearGradient id="paint0_linear" x1="0" y1="0" x2="29.8386" y2="57.4213" gradientUnits="userSpaceOnUse">
<stop stop-color="#A783E2"/>
<stop offset="1" stop-color="#7749C2"/>
</linearGradient>
<linearGradient id="paint1_linear" x1="80.7033" y1="3.76514" x2="107.916" y2="33.0546" gradientUnits="userSpaceOnUse">
<stop stop-color="#A783E2"/>
<stop offset="1" stop-color="#7749C2"/>
</linearGradient>
</defs>
</svg>
