<svg width="86" height="30" viewBox="0 0 86 30" fill="none" xmlns="http://www.w3.org/2000/svg">
<path d="M13.4531 18.0781V14H13.0391C12.3099 14 11.7474 14.1797 11.3516 14.5391C10.9609 14.8984 10.7656 15.4167 10.7656 16.0938C10.7656 16.7292 10.9583 17.2188 11.3438 17.5625C11.7292 17.9062 12.2839 18.0781 13.0078 18.0781H13.4531ZM17.8438 18.0781C17.8958 18.0781 17.9219 18.099 17.9219 18.1406V19.9219C17.9219 19.974 17.8958 20 17.8438 20H4.22656C3.24219 20 2.46354 19.7135 1.89062 19.1406C1.32292 18.5677 1.03906 17.7812 1.03906 16.7812C1.03906 16.3802 1.08594 15.9531 1.17969 15.5C1.27344 15.0417 1.39844 14.6536 1.55469 14.3359H3.66406C3.5026 15.0286 3.42188 15.7266 3.42188 16.4297C3.42188 16.9245 3.5599 17.3229 3.83594 17.625C4.11198 17.9271 4.47656 18.0781 4.92969 18.0781H9.08594C8.57552 17.4583 8.32031 16.7552 8.32031 15.9688C8.32031 14.776 8.73177 13.8307 9.55469 13.1328C10.3776 12.4297 11.5234 12.0781 12.9922 12.0781H15.8438V18.0781H17.8438ZM12.8828 10.7031C12.5495 10.7031 12.2865 10.6016 12.0938 10.3984C11.901 10.1901 11.8047 9.90885 11.8047 9.55469C11.8047 9.19531 11.8984 8.91406 12.0859 8.71094C12.2786 8.5026 12.5443 8.39844 12.8828 8.39844C13.2057 8.39844 13.4609 8.5 13.6484 8.70312C13.8411 8.90625 13.9375 9.1901 13.9375 9.55469C13.9375 9.90885 13.8385 10.1901 13.6406 10.3984C13.4479 10.6016 13.1953 10.7031 12.8828 10.7031ZM17.6875 20C17.6354 20 17.6094 19.974 17.6094 19.9219V18.1406C17.6094 18.099 17.6354 18.0781 17.6875 18.0781H20.4844V12.0781H22.8672V20H17.6875ZM18.9766 24C18.6484 24 18.388 23.8958 18.1953 23.6875C18.0026 23.4844 17.9062 23.2057 17.9062 22.8516C17.9062 22.4922 18 22.2083 18.1875 22C18.3802 21.7969 18.6432 21.6953 18.9766 21.6953C19.3047 21.6953 19.5625 21.7969 19.75 22C19.9375 22.2031 20.0312 22.487 20.0312 22.8516C20.0312 23.2161 19.9349 23.4974 19.7422 23.6953C19.5495 23.8984 19.2943 24 18.9766 24ZM21.6953 24C21.3672 24 21.1068 23.8958 20.9141 23.6875C20.7214 23.4844 20.625 23.2057 20.625 22.8516C20.625 22.4922 20.7188 22.2083 20.9062 22C21.099 21.7969 21.362 21.6953 21.6953 21.6953C22.0286 21.6953 22.2891 21.7969 22.4766 22C22.6641 22.2083 22.7578 22.4922 22.7578 22.8516C22.7578 23.2057 22.6589 23.4844 22.4609 23.6875C22.2682 23.8958 22.013 24 21.6953 24ZM30.2188 18.0781C30.2708 18.0781 30.2969 18.099 30.2969 18.1406V19.9219C30.2969 19.974 30.2708 20 30.2188 20H25.8359V7.84375H28.2188V18.0781H30.2188ZM40.7344 18.0781V16.1094C40.7344 15.3333 40.5547 14.763 40.1953 14.3984C39.8411 14.0286 39.2891 13.8438 38.5391 13.8438C37.1016 13.8438 35.8594 14.8385 34.8125 16.8281V18.0781H40.7344ZM30.0625 20C30.0104 20 29.9844 19.974 29.9844 19.9219V18.1406C29.9844 18.099 30.0104 18.0781 30.0625 18.0781H32.4297V7.84375H34.8125V14.8828C35.7865 12.9089 37.2318 11.9219 39.1484 11.9219C40.4609 11.9219 41.4505 12.2682 42.1172 12.9609C42.7839 13.6484 43.1172 14.7135 43.1172 16.1562V20H30.0625ZM38.4297 10.7031C38.0964 10.7031 37.8333 10.6016 37.6406 10.3984C37.4479 10.1901 37.3516 9.90885 37.3516 9.55469C37.3516 9.19531 37.4453 8.91406 37.6328 8.71094C37.8255 8.5026 38.0911 8.39844 38.4297 8.39844C38.7526 8.39844 39.0078 8.5 39.1953 8.70312C39.388 8.90625 39.4844 9.1901 39.4844 9.55469C39.4844 9.90885 39.3854 10.1901 39.1875 10.3984C38.9948 10.6016 38.7422 10.7031 38.4297 10.7031ZM48.7734 23.8438C48.0495 23.8438 47.4219 23.7865 46.8906 23.6719C46.3646 23.5625 45.8568 23.362 45.3672 23.0703L46.2969 21.3281C46.7292 21.5521 47.138 21.7083 47.5234 21.7969C47.9089 21.8906 48.3099 21.9375 48.7266 21.9375C49.3307 21.9375 49.7969 21.7708 50.125 21.4375C50.4531 21.1094 50.6172 20.6562 50.6172 20.0781V20H49.0312C47.8906 20 47.013 19.6771 46.3984 19.0312C45.7839 18.3854 45.4766 17.4661 45.4766 16.2734C45.4766 15.4297 45.6875 14.6901 46.1094 14.0547C46.5312 13.4141 47.1276 12.9245 47.8984 12.5859C48.6693 12.2474 49.5599 12.0781 50.5703 12.0781H53V20.0469C53 21.2604 52.6302 22.1953 51.8906 22.8516C51.1562 23.513 50.1172 23.8438 48.7734 23.8438ZM50.6172 18.0781V14H50.1016C49.4193 14 48.8854 14.1927 48.5 14.5781C48.1198 14.9635 47.9297 15.5078 47.9297 16.2109C47.9297 16.8516 48.0599 17.3229 48.3203 17.625C48.5807 17.9271 48.9792 18.0781 49.5156 18.0781H50.6172Z" fill="white"/>
<rect width="23" height="18.4" rx="2" transform="matrix(-1 0 0 1 86 7.46667)" fill="white"/>
<rect width="11" height="7" rx="3" transform="matrix(-1 0 0 1 80 4.13336)" stroke="white" stroke-width="2"/>
<rect width="23" height="1.53333" transform="matrix(-1 0 0 1 86 16.6668)" fill="#27346B"/>
</svg>
