<svg width="108" height="40" viewBox="0 0 108 40" fill="none" xmlns="http://www.w3.org/2000/svg">
<path d="M13.4546 24.4447C13.521 24.4447 13.5541 24.4713 13.5541 24.5243V26.7933C13.5541 26.8597 13.521 26.8928 13.4546 26.8928H7.27465C5.39047 26.8928 3.92758 26.455 2.88597 25.5792C1.84437 24.6968 1.32357 23.4695 1.32357 21.8971C1.32357 20.8953 1.56241 20.0063 2.04009 19.2301C2.51776 18.4538 3.20111 17.8567 4.09012 17.4388C4.98577 17.0142 6.04728 16.8019 7.27465 16.8019H7.84189V15.8067H10.907V24.4447H13.4546ZM7.87174 24.4447V19.25H7.33436C6.40554 19.25 5.68902 19.4789 5.1848 19.9366C4.68722 20.3944 4.43843 21.0545 4.43843 21.917C4.43843 22.7264 4.6839 23.35 5.17485 23.7879C5.6658 24.2258 6.37236 24.4447 7.29455 24.4447H7.87174ZM5.97098 14.5229C5.55301 14.5229 5.22129 14.3936 4.97582 14.1348C4.73034 13.8694 4.60761 13.5112 4.60761 13.06C4.60761 12.6023 4.72703 12.244 4.96587 11.9853C5.21134 11.7199 5.54638 11.5872 5.97098 11.5872C6.38895 11.5872 6.71736 11.7166 6.95619 11.9753C7.19503 12.2341 7.31445 12.5956 7.31445 13.06C7.31445 13.5245 7.19172 13.886 6.94624 14.1448C6.70077 14.3969 6.37568 14.5229 5.97098 14.5229ZM9.43415 14.5229C9.01618 14.5229 8.68446 14.3936 8.43899 14.1348C8.19351 13.8694 8.07078 13.5112 8.07078 13.06C8.07078 12.6023 8.1902 12.244 8.42904 11.9853C8.67451 11.7199 9.00955 11.5872 9.43415 11.5872C9.85876 11.5872 10.1905 11.7199 10.4293 11.9853C10.6682 12.244 10.7876 12.6023 10.7876 13.06C10.7876 13.5112 10.6615 13.8694 10.4094 14.1348C10.1639 14.3936 9.83885 14.5229 9.43415 14.5229ZM27.3172 24.4447C27.3836 24.4447 27.4168 24.4713 27.4168 24.5243V26.7933C27.4168 26.8597 27.3836 26.8928 27.3172 26.8928H13.2556C13.1892 26.8928 13.1561 26.8597 13.1561 26.7933V24.5243C13.1561 24.4713 13.1892 24.4447 13.2556 24.4447H16.1714C15.5146 23.6685 15.1862 22.7728 15.1862 21.7578C15.1862 20.2385 15.7103 19.0343 16.7586 18.1453C17.8068 17.2497 19.2664 16.8019 21.1373 16.8019H24.7696V24.4447H27.3172ZM21.7344 24.4447V19.25H21.197C20.2814 19.25 19.5716 19.4789 19.0673 19.9366C18.5631 20.3878 18.311 21.0479 18.311 21.917C18.311 22.7264 18.5532 23.35 19.0375 23.7879C19.5284 24.2258 20.235 24.4447 21.1572 24.4447H21.7344ZM20.9183 15.0504C20.4937 15.0504 20.1587 14.921 19.9132 14.6623C19.6678 14.3969 19.545 14.0386 19.545 13.5875C19.545 13.1297 19.6644 12.7714 19.9033 12.5127C20.1487 12.2473 20.4871 12.1146 20.9183 12.1146C21.3297 12.1146 21.6548 12.244 21.8936 12.5028C22.1391 12.7615 22.2618 13.1231 22.2618 13.5875C22.2618 14.0386 22.1358 14.3969 21.8836 14.6623C21.6382 14.921 21.3164 15.0504 20.9183 15.0504ZM27.1282 26.8928C27.0618 26.8928 27.0286 26.8597 27.0286 26.7933V24.5243C27.0286 24.4713 27.0618 24.4447 27.1282 24.4447H30.2828V16.8019H33.3181V24.4447H36.3832C36.4495 24.4447 36.4827 24.4713 36.4827 24.5243V26.7933C36.4827 26.8597 36.4495 26.8928 36.3832 26.8928H27.1282ZM29.8549 31.9881C29.4369 31.9881 29.1052 31.8554 28.8597 31.59C28.6143 31.3313 28.4915 30.9763 28.4915 30.5252C28.4915 30.0674 28.611 29.7058 28.8498 29.4404C29.0953 29.1817 29.4303 29.0523 29.8549 29.0523C30.2729 29.0523 30.6013 29.1817 30.8401 29.4404C31.079 29.6992 31.1984 30.0608 31.1984 30.5252C31.1984 30.9896 31.0756 31.3478 30.8302 31.5999C30.5847 31.8587 30.2596 31.9881 29.8549 31.9881ZM33.3181 31.9881C32.9001 31.9881 32.5684 31.8554 32.3229 31.59C32.0774 31.3313 31.9547 30.9763 31.9547 30.5252C31.9547 30.0674 32.0741 29.7058 32.313 29.4404C32.5584 29.1817 32.8935 29.0523 33.3181 29.0523C33.7427 29.0523 34.0744 29.1817 34.3132 29.4404C34.5521 29.7058 34.6715 30.0674 34.6715 30.5252C34.6715 30.9763 34.5455 31.3313 34.2933 31.59C34.0479 31.8554 33.7228 31.9881 33.3181 31.9881ZM49.7781 24.4447V21.9369C49.7781 20.9484 49.5492 20.2219 49.0914 19.7575C48.6403 19.2865 47.937 19.0509 46.9817 19.0509C45.1506 19.0509 43.5683 20.3181 42.2347 22.8525V24.4447H49.7781ZM36.1842 26.8928C36.1178 26.8928 36.0846 26.8597 36.0846 26.7933V24.5243C36.0846 24.4713 36.1178 24.4447 36.1842 24.4447H39.1995V11.4081H42.2347V20.3745C43.4754 17.8601 45.3164 16.6028 47.7579 16.6028C49.4298 16.6028 50.6903 17.044 51.5395 17.9264C52.3887 18.8021 52.8133 20.1589 52.8133 21.9966V26.8928H36.1842ZM46.8424 15.0504C46.4178 15.0504 46.0827 14.921 45.8372 14.6623C45.5918 14.3969 45.469 14.0386 45.469 13.5875C45.469 13.1297 45.5884 12.7714 45.8273 12.5127C46.0728 12.2473 46.4111 12.1146 46.8424 12.1146C47.2537 12.1146 47.5788 12.244 47.8176 12.5028C48.0631 12.7615 48.1858 13.1231 48.1858 13.5875C48.1858 14.0386 48.0598 14.3969 47.8077 14.6623C47.5622 14.921 47.2404 15.0504 46.8424 15.0504ZM60.0183 31.789C59.0961 31.789 58.2967 31.716 57.62 31.5701C56.9499 31.4308 56.303 31.1753 55.6794 30.8038L56.8637 28.5846C57.4143 28.8699 57.9351 29.0689 58.4261 29.1817C58.917 29.3011 59.4279 29.3608 59.9586 29.3608C60.7282 29.3608 61.322 29.1485 61.74 28.7239C62.1579 28.306 62.3669 27.7288 62.3669 26.9923V26.8928H60.3467C58.8938 26.8928 57.7759 26.4815 56.993 25.6588C56.2102 24.8362 55.8187 23.6652 55.8187 22.1459C55.8187 21.0711 56.0874 20.129 56.6248 19.3196C57.1622 18.5036 57.9218 17.88 58.9037 17.4487C59.8856 17.0175 61.0201 16.8019 62.3072 16.8019H65.4022V26.9525C65.4022 28.4984 64.9311 29.6892 63.989 30.5252C63.0536 31.3677 61.73 31.789 60.0183 31.789ZM62.3669 24.4447V19.25H61.7101C60.841 19.25 60.161 19.4954 59.67 19.9864C59.1857 20.4773 58.9435 21.1706 58.9435 22.0663C58.9435 22.8823 59.1094 23.4827 59.4411 23.8675C59.7729 24.2523 60.2804 24.4447 60.9637 24.4447H62.3669Z" fill="url(#paint0_linear)"/>
<path fill-rule="evenodd" clip-rule="evenodd" d="M83.8441 9.97939C83.8441 7.04044 86.2266 4.65796 89.1655 4.65796H95.5346C98.4735 4.65796 100.856 7.04044 100.856 9.97939V11.2532C100.856 11.3611 100.853 11.4683 100.846 11.5746H104.46C105.867 11.5746 107.008 12.7152 107.008 14.1222V22H77.71V14.1222C77.71 12.7152 78.8506 11.5746 80.2576 11.5746H83.8537C83.8473 11.4683 83.8441 11.3611 83.8441 11.2532V9.97939ZM77.71 24V32.4651C77.71 33.8721 78.8506 35.0127 80.2576 35.0127H104.46C105.867 35.0127 107.008 33.8721 107.008 32.4651V24H77.71ZM97.856 11.2532C97.856 11.3622 97.8485 11.4695 97.834 11.5746H86.8662C86.8516 11.4695 86.8441 11.3622 86.8441 11.2532V9.97939C86.8441 8.6973 87.8835 7.65796 89.1655 7.65796H95.5346C96.8167 7.65796 97.856 8.6973 97.856 9.97939V11.2532Z" fill="url(#paint1_linear)"/>
<defs>
<linearGradient id="paint0_linear" x1="0" y1="0.892822" x2="29.5023" y2="56.7749" gradientUnits="userSpaceOnUse">
<stop stop-color="#A783E2"/>
<stop offset="1" stop-color="#7749C2"/>
</linearGradient>
<linearGradient id="paint1_linear" x1="77.7031" y1="4.65796" x2="104.915" y2="33.9475" gradientUnits="userSpaceOnUse">
<stop stop-color="#A783E2"/>
<stop offset="1" stop-color="#7749C2"/>
</linearGradient>
</defs>
</svg>
