<svg width="86" height="30" viewBox="0 0 86 30" fill="none" xmlns="http://www.w3.org/2000/svg">
<path d="M14.0938 18.0781V14H13.6797C12.9505 14 12.388 14.1797 11.9922 14.5391C11.6016 14.8984 11.4062 15.4167 11.4062 16.0938C11.4062 16.7292 11.599 17.2188 11.9844 17.5625C12.3698 17.9062 12.9245 18.0781 13.6484 18.0781H14.0938ZM18.4844 18.0781C18.5365 18.0781 18.5625 18.099 18.5625 18.1406V19.9219C18.5625 19.974 18.5365 20 18.4844 20H4.86719C3.88281 20 3.10417 19.7135 2.53125 19.1406C1.96354 18.5677 1.67969 17.7812 1.67969 16.7812C1.67969 16.3802 1.72656 15.9531 1.82031 15.5C1.91406 15.0417 2.03906 14.6536 2.19531 14.3359H4.30469C4.14323 15.0286 4.0625 15.7266 4.0625 16.4297C4.0625 16.9245 4.20052 17.3229 4.47656 17.625C4.7526 17.9271 5.11719 18.0781 5.57031 18.0781H9.72656C9.21615 17.4583 8.96094 16.7552 8.96094 15.9688C8.96094 14.776 9.3724 13.8307 10.1953 13.1328C11.0182 12.4297 12.1641 12.0781 13.6328 12.0781H16.4844V18.0781H18.4844ZM13.5234 10.7031C13.1901 10.7031 12.9271 10.6016 12.7344 10.3984C12.5417 10.1901 12.4453 9.90885 12.4453 9.55469C12.4453 9.19531 12.5391 8.91406 12.7266 8.71094C12.9193 8.5026 13.1849 8.39844 13.5234 8.39844C13.8464 8.39844 14.1016 8.5 14.2891 8.70312C14.4818 8.90625 14.5781 9.1901 14.5781 9.55469C14.5781 9.90885 14.4792 10.1901 14.2812 10.3984C14.0885 10.6016 13.8359 10.7031 13.5234 10.7031ZM18.3281 20C18.276 20 18.25 19.974 18.25 19.9219V18.1406C18.25 18.099 18.276 18.0781 18.3281 18.0781H21.125V12.0781H23.5078V20H18.3281ZM19.6172 24C19.2891 24 19.0286 23.8958 18.8359 23.6875C18.6432 23.4844 18.5469 23.2057 18.5469 22.8516C18.5469 22.4922 18.6406 22.2083 18.8281 22C19.0208 21.7969 19.2839 21.6953 19.6172 21.6953C19.9453 21.6953 20.2031 21.7969 20.3906 22C20.5781 22.2031 20.6719 22.487 20.6719 22.8516C20.6719 23.2161 20.5755 23.4974 20.3828 23.6953C20.1901 23.8984 19.9349 24 19.6172 24ZM22.3359 24C22.0078 24 21.7474 23.8958 21.5547 23.6875C21.362 23.4844 21.2656 23.2057 21.2656 22.8516C21.2656 22.4922 21.3594 22.2083 21.5469 22C21.7396 21.7969 22.0026 21.6953 22.3359 21.6953C22.6693 21.6953 22.9297 21.7969 23.1172 22C23.3047 22.2083 23.3984 22.4922 23.3984 22.8516C23.3984 23.2057 23.2995 23.4844 23.1016 23.6875C22.9089 23.8958 22.6536 24 22.3359 24ZM30.8594 18.0781C30.9115 18.0781 30.9375 18.099 30.9375 18.1406V19.9219C30.9375 19.974 30.9115 20 30.8594 20H26.4766V7.84375H28.8594V18.0781H30.8594ZM41.375 18.0781V16.1094C41.375 15.3333 41.1953 14.763 40.8359 14.3984C40.4818 14.0286 39.9297 13.8438 39.1797 13.8438C37.7422 13.8438 36.5 14.8385 35.4531 16.8281V18.0781H41.375ZM30.7031 20C30.651 20 30.625 19.974 30.625 19.9219V18.1406C30.625 18.099 30.651 18.0781 30.7031 18.0781H33.0703V7.84375H35.4531V14.8828C36.4271 12.9089 37.8724 11.9219 39.7891 11.9219C41.1016 11.9219 42.0911 12.2682 42.7578 12.9609C43.4245 13.6484 43.7578 14.7135 43.7578 16.1562V20H30.7031ZM39.0703 10.7031C38.737 10.7031 38.474 10.6016 38.2812 10.3984C38.0885 10.1901 37.9922 9.90885 37.9922 9.55469C37.9922 9.19531 38.0859 8.91406 38.2734 8.71094C38.4661 8.5026 38.7318 8.39844 39.0703 8.39844C39.3932 8.39844 39.6484 8.5 39.8359 8.70312C40.0286 8.90625 40.125 9.1901 40.125 9.55469C40.125 9.90885 40.026 10.1901 39.8281 10.3984C39.6354 10.6016 39.3828 10.7031 39.0703 10.7031ZM49.4141 23.8438C48.6901 23.8438 48.0625 23.7865 47.5312 23.6719C47.0052 23.5625 46.4974 23.362 46.0078 23.0703L46.9375 21.3281C47.3698 21.5521 47.7786 21.7083 48.1641 21.7969C48.5495 21.8906 48.9505 21.9375 49.3672 21.9375C49.9714 21.9375 50.4375 21.7708 50.7656 21.4375C51.0938 21.1094 51.2578 20.6562 51.2578 20.0781V20H49.6719C48.5312 20 47.6536 19.6771 47.0391 19.0312C46.4245 18.3854 46.1172 17.4661 46.1172 16.2734C46.1172 15.4297 46.3281 14.6901 46.75 14.0547C47.1719 13.4141 47.7682 12.9245 48.5391 12.5859C49.3099 12.2474 50.2005 12.0781 51.2109 12.0781H53.6406V20.0469C53.6406 21.2604 53.2708 22.1953 52.5312 22.8516C51.7969 23.513 50.7578 23.8438 49.4141 23.8438ZM51.2578 18.0781V14H50.7422C50.0599 14 49.526 14.1927 49.1406 14.5781C48.7604 14.9635 48.5703 15.5078 48.5703 16.2109C48.5703 16.8516 48.7005 17.3229 48.9609 17.625C49.2214 17.9271 49.6198 18.0781 50.1562 18.0781H51.2578Z" fill="url(#paint0_linear)"/>
<path fill-rule="evenodd" clip-rule="evenodd" d="M67.8156 7.26265C67.8156 4.95544 69.686 3.08508 71.9932 3.08508H76.9932C79.3004 3.08508 81.1708 4.95544 81.1708 7.26265V8.26265C81.1708 8.34736 81.1682 8.43147 81.1633 8.51493H83.9333C85.0747 8.51493 86 9.4402 86 10.5816V16.6994H63V10.5816C63 9.44021 63.9253 8.51493 65.0667 8.51493H67.8231C67.8181 8.43147 67.8156 8.34736 67.8156 8.26265V7.26265ZM63 18.2695V24.8483C63 25.9897 63.9253 26.9149 65.0667 26.9149H83.9333C85.0747 26.9149 86 25.9896 86 24.8483V18.2695H63ZM78.8156 8.26265C78.8156 8.34825 78.8097 8.43247 78.7983 8.51493H70.1881C70.1767 8.43247 70.1708 8.34825 70.1708 8.26265V7.26265C70.1708 6.25615 70.9867 5.44022 71.9932 5.44022H76.9932C77.9997 5.44022 78.8156 6.25615 78.8156 7.26265V8.26265Z" fill="url(#paint1_linear)"/>
<defs>
<linearGradient id="paint0_linear" x1="0" y1="0" x2="22.6713" y2="44.5636" gradientUnits="userSpaceOnUse">
<stop stop-color="#A783E2"/>
<stop offset="1" stop-color="#7749C2"/>
</linearGradient>
<linearGradient id="paint1_linear" x1="62.9946" y1="3.08508" x2="84.3576" y2="26.0787" gradientUnits="userSpaceOnUse">
<stop stop-color="#A783E2"/>
<stop offset="1" stop-color="#7749C2"/>
</linearGradient>
</defs>
</svg>
