<svg width="84" height="30" viewBox="0 0 84 30" fill="none" xmlns="http://www.w3.org/2000/svg">
<path d="M10.8594 18.0781C10.9115 18.0781 10.9375 18.099 10.9375 18.1406V19.9219C10.9375 19.974 10.9115 20 10.8594 20H6.00781C4.52865 20 3.38021 19.6562 2.5625 18.9688C1.74479 18.276 1.33594 17.3125 1.33594 16.0781C1.33594 15.2917 1.52344 14.5938 1.89844 13.9844C2.27344 13.375 2.8099 12.9062 3.50781 12.5781C4.21094 12.2448 5.04427 12.0781 6.00781 12.0781H6.45312V11.2969H8.85938V18.0781H10.8594ZM6.47656 18.0781V14H6.05469C5.32552 14 4.76302 14.1797 4.36719 14.5391C3.97656 14.8984 3.78125 15.4167 3.78125 16.0938C3.78125 16.7292 3.97396 17.2188 4.35938 17.5625C4.74479 17.9062 5.29948 18.0781 6.02344 18.0781H6.47656ZM4.98438 10.2891C4.65625 10.2891 4.39583 10.1875 4.20312 9.98438C4.01042 9.77604 3.91406 9.49479 3.91406 9.14062C3.91406 8.78125 4.00781 8.5 4.19531 8.29688C4.38802 8.08854 4.65104 7.98438 4.98438 7.98438C5.3125 7.98438 5.57031 8.08594 5.75781 8.28906C5.94531 8.49219 6.03906 8.77604 6.03906 9.14062C6.03906 9.50521 5.94271 9.78906 5.75 9.99219C5.55729 10.1901 5.30208 10.2891 4.98438 10.2891ZM7.70312 10.2891C7.375 10.2891 7.11458 10.1875 6.92188 9.98438C6.72917 9.77604 6.63281 9.49479 6.63281 9.14062C6.63281 8.78125 6.72656 8.5 6.91406 8.29688C7.10677 8.08854 7.36979 7.98438 7.70312 7.98438C8.03646 7.98438 8.29688 8.08854 8.48438 8.29688C8.67188 8.5 8.76562 8.78125 8.76562 9.14062C8.76562 9.49479 8.66667 9.77604 8.46875 9.98438C8.27604 10.1875 8.02083 10.2891 7.70312 10.2891ZM21.7422 18.0781C21.7943 18.0781 21.8203 18.099 21.8203 18.1406V19.9219C21.8203 19.974 21.7943 20 21.7422 20H10.7031C10.651 20 10.625 19.974 10.625 19.9219V18.1406C10.625 18.099 10.651 18.0781 10.7031 18.0781H12.9922C12.4766 17.4688 12.2188 16.7656 12.2188 15.9688C12.2188 14.776 12.6302 13.8307 13.4531 13.1328C14.276 12.4297 15.4219 12.0781 16.8906 12.0781H19.7422V18.0781H21.7422ZM17.3594 18.0781V14H16.9375C16.2188 14 15.6615 14.1797 15.2656 14.5391C14.8698 14.8932 14.6719 15.4115 14.6719 16.0938C14.6719 16.7292 14.862 17.2188 15.2422 17.5625C15.6276 17.9062 16.1823 18.0781 16.9062 18.0781H17.3594ZM16.7188 10.7031C16.3854 10.7031 16.1224 10.6016 15.9297 10.3984C15.737 10.1901 15.6406 9.90885 15.6406 9.55469C15.6406 9.19531 15.7344 8.91406 15.9219 8.71094C16.1146 8.5026 16.3802 8.39844 16.7188 8.39844C17.0417 8.39844 17.2969 8.5 17.4844 8.70312C17.6771 8.90625 17.7734 9.1901 17.7734 9.55469C17.7734 9.90885 17.6745 10.1901 17.4766 10.3984C17.2839 10.6016 17.0312 10.7031 16.7188 10.7031ZM21.5938 20C21.5417 20 21.5156 19.974 21.5156 19.9219V18.1406C21.5156 18.099 21.5417 18.0781 21.5938 18.0781H24.0703V12.0781H26.4531V18.0781H28.8594C28.9115 18.0781 28.9375 18.099 28.9375 18.1406V19.9219C28.9375 19.974 28.9115 20 28.8594 20H21.5938ZM23.7344 24C23.4062 24 23.1458 23.8958 22.9531 23.6875C22.7604 23.4844 22.6641 23.2057 22.6641 22.8516C22.6641 22.4922 22.7578 22.2083 22.9453 22C23.138 21.7969 23.401 21.6953 23.7344 21.6953C24.0625 21.6953 24.3203 21.7969 24.5078 22C24.6953 22.2031 24.7891 22.487 24.7891 22.8516C24.7891 23.2161 24.6927 23.4974 24.5 23.6953C24.3073 23.8984 24.0521 24 23.7344 24ZM26.4531 24C26.125 24 25.8646 23.8958 25.6719 23.6875C25.4792 23.4844 25.3828 23.2057 25.3828 22.8516C25.3828 22.4922 25.4766 22.2083 25.6641 22C25.8568 21.7969 26.1198 21.6953 26.4531 21.6953C26.7865 21.6953 27.0469 21.7969 27.2344 22C27.4219 22.2083 27.5156 22.4922 27.5156 22.8516C27.5156 23.2057 27.4167 23.4844 27.2188 23.6875C27.026 23.8958 26.7708 24 26.4531 24ZM39.375 18.0781V16.1094C39.375 15.3333 39.1953 14.763 38.8359 14.3984C38.4818 14.0286 37.9297 13.8438 37.1797 13.8438C35.7422 13.8438 34.5 14.8385 33.4531 16.8281V18.0781H39.375ZM28.7031 20C28.651 20 28.625 19.974 28.625 19.9219V18.1406C28.625 18.099 28.651 18.0781 28.7031 18.0781H31.0703V7.84375H33.4531V14.8828C34.4271 12.9089 35.8724 11.9219 37.7891 11.9219C39.1016 11.9219 40.0911 12.2682 40.7578 12.9609C41.4245 13.6484 41.7578 14.7135 41.7578 16.1562V20H28.7031ZM37.0703 10.7031C36.737 10.7031 36.474 10.6016 36.2812 10.3984C36.0885 10.1901 35.9922 9.90885 35.9922 9.55469C35.9922 9.19531 36.0859 8.91406 36.2734 8.71094C36.4661 8.5026 36.7318 8.39844 37.0703 8.39844C37.3932 8.39844 37.6484 8.5 37.8359 8.70312C38.0286 8.90625 38.125 9.1901 38.125 9.55469C38.125 9.90885 38.026 10.1901 37.8281 10.3984C37.6354 10.6016 37.3828 10.7031 37.0703 10.7031ZM47.4141 23.8438C46.6901 23.8438 46.0625 23.7865 45.5312 23.6719C45.0052 23.5625 44.4974 23.362 44.0078 23.0703L44.9375 21.3281C45.3698 21.5521 45.7786 21.7083 46.1641 21.7969C46.5495 21.8906 46.9505 21.9375 47.3672 21.9375C47.9714 21.9375 48.4375 21.7708 48.7656 21.4375C49.0938 21.1094 49.2578 20.6562 49.2578 20.0781V20H47.6719C46.5312 20 45.6536 19.6771 45.0391 19.0312C44.4245 18.3854 44.1172 17.4661 44.1172 16.2734C44.1172 15.4297 44.3281 14.6901 44.75 14.0547C45.1719 13.4141 45.7682 12.9245 46.5391 12.5859C47.3099 12.2474 48.2005 12.0781 49.2109 12.0781H51.6406V20.0469C51.6406 21.2604 51.2708 22.1953 50.5312 22.8516C49.7969 23.513 48.7578 23.8438 47.4141 23.8438ZM49.2578 18.0781V14H48.7422C48.0599 14 47.526 14.1927 47.1406 14.5781C46.7604 14.9635 46.5703 15.5078 46.5703 16.2109C46.5703 16.8516 46.7005 17.3229 46.9609 17.625C47.2214 17.9271 47.6198 18.0781 48.1562 18.0781H49.2578Z" fill="url(#paint0_linear)"/>
<path fill-rule="evenodd" clip-rule="evenodd" d="M65.8156 7.26265C65.8156 4.95544 67.686 3.08508 69.9932 3.08508H74.9932C77.3004 3.08508 79.1708 4.95544 79.1708 7.26265V8.26265C79.1708 8.34736 79.1682 8.43147 79.1633 8.51493H81.9333C83.0747 8.51493 84 9.4402 84 10.5816V16.6994H61V10.5816C61 9.44021 61.9253 8.51493 63.0667 8.51493H65.8231C65.8181 8.43147 65.8156 8.34736 65.8156 8.26265V7.26265ZM61 18.2695V24.8483C61 25.9897 61.9253 26.9149 63.0667 26.9149H81.9333C83.0747 26.9149 84 25.9896 84 24.8483V18.2695H61ZM76.8156 8.26265C76.8156 8.34825 76.8097 8.43247 76.7983 8.51493H68.1881C68.1767 8.43247 68.1708 8.34825 68.1708 8.26265V7.26265C68.1708 6.25615 68.9867 5.44022 69.9932 5.44022H74.9932C75.9997 5.44022 76.8156 6.25615 76.8156 7.26265V8.26265Z" fill="url(#paint1_linear)"/>
<defs>
<linearGradient id="paint0_linear" x1="0" y1="0" x2="23.1607" y2="43.87" gradientUnits="userSpaceOnUse">
<stop stop-color="#A783E2"/>
<stop offset="1" stop-color="#7749C2"/>
</linearGradient>
<linearGradient id="paint1_linear" x1="60.9946" y1="3.08508" x2="82.3576" y2="26.0787" gradientUnits="userSpaceOnUse">
<stop stop-color="#A783E2"/>
<stop offset="1" stop-color="#7749C2"/>
</linearGradient>
</defs>
</svg>
